<svg width="70" height="59" viewBox="0 0 70 59" fill="none" xmlns="http://www.w3.org/2000/svg">
<path fill-rule="evenodd" clip-rule="evenodd" d="M65.7317 0H3.41463C1.53659 0 0 1.4 0 3.11111V44.3333C0 46.0444 1.53659 47.4444 3.41463 47.4444H32.5927L30.3638 52.7917L30.3646 52.7886C30.2528 53.0592 30.1726 53.3649 30.1717 53.718C30.1717 53.9926 30.2238 54.2951 30.3561 54.5961C30.549 55.0488 30.9502 55.4688 31.4087 55.706C31.8671 55.9494 32.3409 56.0288 32.7455 56.0288C32.9273 56.0288 33.104 56.0124 33.2748 55.9844L33.273 55.9852L36.073 55.5279L37.8324 57.5626L37.8333 57.5633C38.0348 57.7951 38.2917 58.0214 38.6383 58.2066C38.9815 58.3893 39.4305 58.5247 39.9188 58.5239C40.5343 58.5309 41.1489 58.2921 41.5476 57.9709C41.9565 57.6489 42.1887 57.2787 42.3346 56.9333V56.9325L44.199 52.4595L46.0634 56.9325V56.9333C46.2085 57.2787 46.4424 57.6489 46.8505 57.9709C47.2491 58.2921 47.8646 58.5309 48.4793 58.5239C48.9676 58.5247 49.4157 58.3893 49.7598 58.2066C50.1063 58.0214 50.3641 57.7951 50.5648 57.5633L50.5656 57.5626L52.325 55.5279L55.125 55.9852L55.1233 55.9844C55.2932 56.0124 55.4699 56.0288 55.6526 56.0288C55.924 56.0288 56.2211 55.9938 56.5293 55.8981C56.9885 55.7597 57.4726 55.454 57.785 55.0324C58.1034 54.6132 58.2298 54.1271 58.2263 53.7188C58.2255 53.3664 58.1452 53.06 58.0334 52.7909L55.8054 47.4452H65.7317C67.6097 47.4452 69.1463 46.0452 69.1463 44.3341V3.11189C69.1463 1.4 67.6097 0 65.7317 0ZM60.3374 43.5556L56.9228 40.4444H60.5577L63.9732 43.5556H60.3374ZM43.9634 43.5556C39.4919 43.5556 35.8537 40.2407 35.8537 36.1667C35.8537 32.0927 39.4919 28.7778 43.9634 28.7778C48.4349 28.7778 52.0732 32.0927 52.0732 36.1667C52.0732 40.2407 48.4349 43.5556 43.9634 43.5556ZM43.9634 24.8889C37.1248 24.8889 31.5854 29.9382 31.5854 36.1667C31.5854 36.8309 31.6605 37.4788 31.7817 38.1111H10.2439V9.33333H58.9024V38.1111H56.1451C56.2663 37.4788 56.3415 36.8309 56.3415 36.1667C56.3415 29.9382 50.8021 24.8889 43.9634 24.8889ZM61.4634 39.6192V36.1122L64.878 39.2233V42.7296L61.4634 39.6192ZM61.4634 34.4633V31.1656L64.878 34.2774V37.5744L61.4634 34.4633ZM4.26829 43.5556V3.88889H64.878V32.627L61.4634 29.5151V7.77778C61.4634 7.35 61.0793 7 60.6098 7H8.53658C8.06707 7 7.68293 7.35 7.68293 7.77778V39.6667C7.68293 40.0944 8.06707 40.4444 8.53658 40.4444H32.5124C32.9717 41.4649 33.5889 42.4083 34.3393 43.2522L34.2129 43.5556H4.26829ZM39.3793 53.0693L39.1599 52.815C38.7552 52.3561 38.3071 52.0893 37.8444 51.8941C37.3783 51.7051 36.8874 51.5884 36.3112 51.5853C36.1319 51.5861 35.9373 51.5986 35.7265 51.6343L35.7384 51.632L35.3884 51.6888L37.7889 45.9317C39.0105 46.5741 40.361 47.0299 41.8002 47.2617L39.3793 53.0693ZM52.6699 51.6343C52.459 51.5986 52.2644 51.5861 52.0851 51.5861C51.5089 51.5892 51.018 51.7051 50.5519 51.8941C50.0893 52.0893 49.6419 52.3561 49.2365 52.815L49.0171 53.0693L46.5662 47.1893C47.9927 46.9109 49.3218 46.403 50.5195 45.7193L53.0071 51.688L52.6579 51.6312L52.6699 51.6343ZM53.8991 42.8727C54.4617 42.182 54.9466 41.4377 55.3256 40.6389L58.5268 43.5556H54.1834L53.8991 42.8727ZM18.7805 15.9444H42.6829C43.3906 15.9444 43.9634 16.4671 43.9634 17.1111C43.9634 17.7551 43.3906 18.2778 42.6829 18.2778H18.7805C18.0728 18.2778 17.5 17.7551 17.5 17.1111C17.5 16.4671 18.0728 15.9444 18.7805 15.9444ZM18.7805 23.7222H28.1707C28.8784 23.7222 29.4512 24.2448 29.4512 24.8888C29.4512 25.5328 28.8784 26.0555 28.1707 26.0555H18.7805C18.0728 26.0555 17.5 25.5328 17.5 24.8888C17.5 24.2448 18.0728 23.7222 18.7805 23.7222ZM39.2683 36.1666C39.2683 33.8045 41.3691 31.8888 43.9634 31.8888C46.5577 31.8888 48.6585 33.8045 48.6585 36.1666C48.6585 38.5287 46.5577 40.4444 43.9634 40.4444C41.3691 40.4444 39.2683 38.5287 39.2683 36.1666ZM41.8293 36.1666C41.8293 37.2392 42.7871 38.111 43.9634 38.111C45.1398 38.111 46.0976 37.2392 46.0976 36.1666C46.0976 35.0941 45.1398 34.2222 43.9634 34.2222C42.7871 34.2222 41.8293 35.0941 41.8293 36.1666Z" fill="#0C8543"/>
</svg>
