<svg width="70" height="53" viewBox="0 0 70 53" fill="none" xmlns="http://www.w3.org/2000/svg">
<path d="M24.1111 18.2778H16.3333C15.6893 18.2778 15.1667 17.7551 15.1667 17.1111C15.1667 16.4671 15.6893 15.9444 16.3333 15.9444H24.1111C24.7551 15.9444 25.2778 16.4671 25.2778 17.1111C25.2778 17.7551 24.7551 18.2778 24.1111 18.2778Z" fill="#0C8543"/>
<path d="M45.8889 18.2778H53.6667C54.3107 18.2778 54.8333 17.7551 54.8333 17.1111C54.8333 16.4671 54.3107 15.9444 53.6667 15.9444H45.8889C45.2449 15.9444 44.7222 16.4671 44.7222 17.1111C44.7222 17.7551 45.2449 18.2778 45.8889 18.2778Z" fill="#0C8543"/>
<path d="M38.8889 18.2778H31.1111C30.4671 18.2778 29.9444 17.7551 29.9444 17.1111C29.9444 16.4671 30.4671 15.9444 31.1111 15.9444H38.8889C39.5329 15.9444 40.0556 16.4671 40.0556 17.1111C40.0556 17.7551 39.5329 18.2778 38.8889 18.2778Z" fill="#0C8543"/>
<path fill-rule="evenodd" clip-rule="evenodd" d="M3.11111 0H66.8889C68.6 0 70 1.4 70 3.11111V8.55556C70 10.2667 68.6 11.6667 66.8889 11.6667H66.1111V49C66.1111 50.7111 64.7111 52.1111 63 52.1111H7C5.28889 52.1111 3.88889 50.7111 3.88889 49V11.6667H3.11111C1.4 11.6667 0 10.2667 0 8.55556V3.11111C0 1.4 1.4 0 3.11111 0ZM47.8333 30.7222V26.8333H22.1667V30.7222H47.8333ZM47.8333 33.0556H22.1667V36.9444H47.8333V33.0556ZM47.8333 39.2778H22.1667V48.2222H47.8333V39.2778ZM61.1839 36.9211L62.2222 37.9594V11.6667H7.77778V48.2222H19.8333V26.8333H16.3333C15.6893 26.8333 15.1667 26.3107 15.1667 25.6667C15.1667 25.0227 15.6893 24.5 16.3333 24.5H53.6667C54.3107 24.5 54.8333 25.0227 54.8333 25.6667C54.8333 26.3107 54.3107 26.8333 53.6667 26.8333H50.1667V31.8811L50.1674 31.8889L50.1667 31.8967V48.223H54.6366L53.4606 47.0462C53.2327 46.8183 53.2327 46.4481 53.4606 46.221C53.6884 45.9931 54.0579 45.9931 54.2858 46.221L56.2862 48.2222H60.0367L56.1773 44.3621C55.9494 44.1342 55.9494 43.7648 56.1773 43.5369C56.4052 43.309 56.7747 43.309 57.0026 43.5369L61.6871 48.2222H62.2222V45.0077L57.5089 40.2959C57.281 40.068 57.281 39.6986 57.5089 39.4707C57.7368 39.2428 58.1062 39.2428 58.3341 39.4707L62.2222 43.358V39.6091L60.3587 37.7463C60.1308 37.5184 60.1308 37.149 60.3587 36.9211C60.5866 36.6932 60.956 36.6932 61.1839 36.9211ZM3.88889 7.77778H66.1111V3.88889H3.88889V7.77778Z" fill="#0C8543"/>
</svg>
